HIERARCHY
ROOT Hips
{
	OFFSET 0.000000 0.000000 0.000000
	CHANNELS 6 Xposition Yposition Zposition Xrotation Yrotation Zrotation
	JOINT LeftUpLeg_virtual
	{
		OFFSET 0.000000 0.000000 0.000000
		CHANNELS 3 Xrotation Yrotation Zrotation
		JOINT LeftUpLeg
		{
			OFFSET 13.026900 -6.336304 -1.092800
			CHANNELS 3 Xrotation Yrotation Zrotation
			JOINT LeftLeg
			{
				OFFSET 0.524474 -46.096886 9.782700
				CHANNELS 3 Xrotation Yrotation Zrotation
				JOINT LeftFoot
				{
					OFFSET -0.524474 -53.427422 -12.948200
					CHANNELS 3 Xrotation Yrotation Zrotation
					JOINT LeftToeBase
					{
						OFFSET 0.192200 -14.009700 16.364100
						CHANNELS 3 Xrotation Yrotation Zrotation
						JOINT LeftToe_End
						{
							OFFSET -1.784700 -0.561700 9.474800
							CHANNELS 3 Xrotation Yrotation Zrotation
							End Site
							{
								OFFSET 0 0 0
							}
						}
					}
				}
			}
		}
	}
	JOINT RightUpLeg_virtual
	{
		OFFSET 0.000000 0.000000 0.000000
		CHANNELS 3 Xrotation Yrotation Zrotation
		JOINT RightUpLeg
		{
			OFFSET -12.883000 -6.336304 -1.092800
			CHANNELS 3 Xrotation Yrotation Zrotation
			JOINT RightLeg
			{
				OFFSET -0.524587 -46.096825 9.782800
				CHANNELS 3 Xrotation Yrotation Zrotation
				JOINT RightFoot
				{
					OFFSET 0.524587 -53.427383 -12.948300
					CHANNELS 3 Xrotation Yrotation Zrotation
					JOINT RightToeBase
					{
						OFFSET -0.192200 -14.009700 16.364100
						CHANNELS 3 Xrotation Yrotation Zrotation
						JOINT RightToe_End
						{
							OFFSET 1.784700 -0.561700 9.474800
							CHANNELS 3 Xrotation Yrotation Zrotation
							End Site
							{
								OFFSET 0 0 0
							}
						}
					}
				}
			}
		}
	}
	JOINT Spine_virtual
	{
		OFFSET 0.000000 0.000000 0.000000
		CHANNELS 3 Xrotation Yrotation Zrotation
		JOINT Spine
		{
			OFFSET 0.072000 7.257294 -0.789700
			CHANNELS 3 Xrotation Yrotation Zrotation
			JOINT Spine1
			{
				OFFSET 0.000000 12.508769 -0.658067
				CHANNELS 3 Xrotation Yrotation Zrotation
				JOINT Spine1_split
				{
					OFFSET 0.000000 12.508769 -0.658067
					CHANNELS 3 Xrotation Yrotation Zrotation
					JOINT Spine2
					{
						OFFSET 0.000000 12.508769 -0.658067
						CHANNELS 3 Xrotation Yrotation Zrotation
						JOINT Neck_virtual
						{
							OFFSET 0.000000 0.000000 0.000000
							CHANNELS 3 Xrotation Yrotation Zrotation
							JOINT Neck
							{
								OFFSET 0.000000 14.033295 7.520400
								CHANNELS 3 Xrotation Yrotation Zrotation
								JOINT Head
								{
									OFFSET 0.000000 8.198502 5.703100
									CHANNELS 3 Xrotation Yrotation Zrotation
									JOINT HeadTop_End
									{
										OFFSET 0.000000 17.760803 13.332701
										CHANNELS 3 Xrotation Yrotation Zrotation
										End Site
										{
											OFFSET 0 0 0
										}
									}
								}
							}
						}
						JOINT LeftShoulder_virtual
						{
							OFFSET 0.000000 0.000000 0.000000
							CHANNELS 3 Xrotation Yrotation Zrotation
							JOINT LeftShoulder
							{
								OFFSET 6.292450 5.785301 -0.669000
								CHANNELS 3 Xrotation Yrotation Zrotation
								JOINT LeftShoulder_split
								{
									OFFSET 6.292450 5.785301 -0.669000
									CHANNELS 3 Xrotation Yrotation Zrotation
									JOINT LeftArm
									{
										OFFSET 13.907140 -6.093903 1.965100
										CHANNELS 3 Xrotation Yrotation Zrotation
										JOINT LeftForeArm
										{
											OFFSET 34.140198 0.000000 0.000000
											CHANNELS 3 Xrotation Yrotation Zrotation
											JOINT LeftHand
											{
												OFFSET 40.960209 0.000000 0.000000
												CHANNELS 3 Xrotation Yrotation Zrotation
												End Site
												{
													OFFSET 0 0 0
												}
											}
										}
									}
								}
							}
						}
						JOINT RightShoulder_virtual
						{
							OFFSET 0.000000 0.000000 0.000000
							CHANNELS 3 Xrotation Yrotation Zrotation
							JOINT RightShoulder
							{
								OFFSET -6.292450 5.785301 -0.669000
								CHANNELS 3 Xrotation Yrotation Zrotation
								JOINT RightShoulder_split
								{
									OFFSET -6.292450 5.785301 -0.669000
									CHANNELS 3 Xrotation Yrotation Zrotation
									JOINT RightArm
									{
										OFFSET -13.907140 -6.093903 1.965100
										CHANNELS 3 Xrotation Yrotation Zrotation
										JOINT RightForeArm
										{
											OFFSET -34.140198 0.000000 0.000000
											CHANNELS 3 Xrotation Yrotation Zrotation
											JOINT RightHand
											{
												OFFSET -40.960209 0.000000 0.000000
												CHANNELS 3 Xrotation Yrotation Zrotation
												End Site
												{
													OFFSET 0 0 0
												}
											}
										}
									}
								}
							}
						}
					}
				}
			}
		}
	}
}
MOTION
Frames: 4
Frame Time: 0.03333333
-2.530460 95.668373 2.407394 0.000000 0.000000 0.000000 19.418069 -43.809772 6.508113 -72.168469 -9.456615 14.613822 46.750176 -7.011051 4.805210 19.009777 -1.221123 -11.897396 0.000002 -0.000002 0.000003 0.000000 0.000000 0.000000 19.418069 -43.809772 6.508113 -40.076364 -6.223586 -17.400798 54.760007 -8.181796 4.043056 -15.192234 -20.742308 20.837425 -1.117555 0.000008 -0.000003 0.000000 0.000000 0.000000 19.418069 -43.809772 6.508113 0.806042 6.572375 -0.586231 -1.588675 4.492985 -2.192221 0.000000 0.000000 0.000000 0.000000 0.000000 0.000000 -1.597446 -0.195611 1.993553 12.118097 6.829916 -4.433335 -0.737340 20.027399 8.229674 0.000000 0.000000 0.000000 -1.597446 -0.195611 1.993553 3.544241 4.756014 -11.623015 0.000000 0.000000 0.000000 -54.038828 -33.116439 -50.381555 -0.000153 -81.882384 -0.000178 0.000000 0.000000 0.000000 -1.597446 -0.195611 1.993553 -14.733702 2.115982 -4.463086 0.000000 0.000000 0.000000 -107.662435 41.165970 127.346459 -0.000007 29.080695 0.000010 0.000000 0.000000 0.000000 
-2.493663 96.703964 -5.308487 0.000000 0.000000 0.000000 21.595375 -44.440151 7.413299 -75.395624 -4.427925 11.292277 58.295924 -8.670002 1.158867 10.960292 -1.909956 -15.781582 -1.451063 -0.039407 1.555314 0.000000 0.000000 0.000000 21.595375 -44.440151 7.413299 -45.462777 -7.332182 -14.980627 55.913793 -8.539034 7.067064 -14.975818 -19.553734 14.416499 -4.032531 -0.000010 0.000002 0.000000 0.000000 0.000000 21.595375 -44.440151 7.413299 1.108901 7.013457 0.518995 -1.310866 4.621466 -2.233294 0.000000 0.000000 0.000000 0.000000 0.000000 0.000000 -1.314409 -0.079136 1.955557 11.539367 6.719176 -4.205102 -1.771503 19.427324 8.399849 0.000000 0.000000 0.000000 -1.314409 -0.079136 1.955557 3.451683 4.257302 -11.406563 0.000000 0.000000 0.000000 -55.761548 -33.679352 -50.844878 0.000176 -80.674178 0.000175 0.000000 0.000000 0.000000 -1.314409 -0.079136 1.955557 -14.702143 2.142281 -4.298179 0.000000 0.000000 0.000000 -107.261339 40.351019 126.260978 -0.000004 28.981985 0.000005 0.000000 0.000000 0.000000 
-2.251198 98.237778 -13.226841 0.000000 0.000000 0.000000 25.252777 -46.897134 9.419633 -74.820132 -0.032323 9.358342 62.845732 -8.254263 -1.153419 10.113202 -9.612498 -19.893491 -7.413510 -0.936831 7.155862 0.000000 0.000000 0.000000 25.252777 -46.897134 9.419633 -50.108532 -9.873943 -13.129226 55.153986 -9.296167 10.147627 -13.801758 -12.606048 11.573300 -6.474008 -0.000044 -0.000005 0.000000 0.000000 0.000000 25.252777 -46.897134 9.419633 0.918432 8.609202 1.392118 -1.320866 5.331381 -2.300519 0.000000 0.000000 0.000000 0.000000 0.000000 0.000000 -1.329634 0.607863 1.876774 11.123529 6.435098 -4.023547 -2.350636 18.589413 8.709352 0.000000 0.000000 0.000000 -1.329634 0.607863 1.876774 3.596422 4.391563 -11.859935 0.000000 0.000000 0.000000 -57.750855 -35.526211 -51.867545 0.000148 -78.626911 0.000115 0.000000 0.000000 0.000000 -1.329634 0.607863 1.876774 -14.638250 2.328212 -4.086764 0.000000 0.000000 0.000000 -106.215145 40.122481 124.749020 0.000007 29.445512 -0.000007 0.000000 0.000000 0.000000 
-1.963629 99.127396 -21.193539 0.000000 0.000000 0.000000 29.323952 -49.997258 12.080551 -72.546219 1.556138 6.891172 63.421107 -8.289702 -1.981813 10.991318 -14.806353 -17.361683 -12.929381 -1.396844 8.365365 0.000000 0.000000 0.000000 29.323952 -49.997258 12.080551 -53.889759 -12.710781 -11.909872 55.650503 -11.173076 9.785638 -11.244577 -3.269689 18.362094 -9.317385 -0.000016 0.000000 0.000000 0.000000 0.000000 29.323952 -49.997258 12.080551 0.637996 10.285357 1.693858 -1.412600 6.214296 -2.374921 0.000000 0.000000 0.000000 0.000000 0.000000 0.000000 -1.420890 1.466140 1.785862 10.672294 6.126704 -3.745101 -2.899203 17.818765 9.146390 0.000000 0.000000 0.000000 -1.420890 1.466140 1.785862 3.755951 4.786396 -12.306302 0.000000 0.000000 0.000000 -59.645242 -36.720729 -52.832029 0.000251 -77.533507 0.000252 0.000000 0.000000 0.000000 -1.420890 1.466140 1.785862 -14.573079 2.615656 -3.942827 0.000000 0.000000 0.000000 -105.630911 39.843458 123.612504 0.000004 30.127507 -0.000002 0.000000 0.000000 0.000000 
